<?xml version="1.0" encoding="utf-8"?>
<!-- Generator: Adobe Illustrator 27.2.0, SVG Export Plug-In . SVG Version: 6.00 Build 0)  -->
<svg version="1.1" id="Capa_1" xmlns="http://www.w3.org/2000/svg" xmlns:xlink="http://www.w3.org/1999/xlink" x="0px" y="0px"
	 viewBox="0 0 910.8 676.7" style="enable-background:new 0 0 910.8 676.7;" xml:space="preserve">
<style type="text/css">
	.st0{fill:#E0DFE4;}
	.st1{fill:#010002;}
	.st2{fill:#202022;}
	.st3{fill:#5A6060;}
	.st4{fill:#31332E;}
	.st5{fill:#1D1D1B;}
	.st6{fill:#2E3430;}
	.st7{fill:#DEDEDE;}
	.st8{fill:#212121;}
	.st9{fill:#20201E;}
	.st10{fill:#939391;}
	.st11{fill:url(#SVGID_1_);}
	.st12{fill:#D8D7DC;}
	.st13{fill:url(#SVGID_00000098216966157217637660000007731498791382286754_);}
	.st14{fill:#7F7373;}
	.st15{fill:url(#SVGID_00000036247571456695799660000012679964754465107078_);}
	.st16{fill:url(#SVGID_00000089534946741513943760000003678437578639707805_);}
	.st17{fill:#B1ABAB;}
	.st18{opacity:0.5;}
	.st19{opacity:0.5;fill:#D7D8DC;enable-background:new    ;}
	.st20{fill:#1E231D;}
	.st21{fill:url(#SVGID_00000023966256213840498580000012208456347022795935_);}
	.st22{fill:url(#SVGID_00000152228876627200176070000000218459431712385168_);}
	.st23{fill:url(#SVGID_00000142164221397819948860000017780005598253775532_);}
	.st24{fill:url(#SVGID_00000172409904176492673930000001523995111872117406_);}
	.st25{fill:#C3C3C5;}
	.st26{fill:#212320;}
	.st27{fill:#050706;}
	.st28{fill:none;}
	.st29{fill:#D0D1D6;}
	.st30{fill:#F4F1F3;}
</style>
<g>
	<g id="Capa_4">
		<path class="st0" d="M811.8,345.8c-0.1,7.5-0.6,26.5-1.3,49.4c-1,33.2-2.2,74.5-2.9,100c-0.2,7.9-0.4,14.3-0.5,18.4
			c0,0-21.8,26.9-38.8,32.7c-9.9,1.7-30.2,3.2-55.9,4.6c-39,2.1-90.4,3.8-137.1,5.2c-64.6,1.8-119.9,2.8-119.9,2.8
			s-55.3-1-119.9-2.8c-46.6-1.3-98.1-3-137-5.2c-25.7-1.4-46-3-55.9-4.6c-17-5.8-38.8-32.7-38.8-32.7c-0.1-4.2-0.3-10.5-0.5-18.4
			c-0.7-25.5-2-66.8-3-100c-0.7-22.8-1.2-41.9-1.3-49.4c-0.3-21.8,7.1-33.9,27.2-58c11.7-14,17.4-28.1,27.3-51.8
			c1.3-3.1,2.6-6.3,4.1-9.7c1.4-3.4,3-7,4.6-10.7c5.8-13.3,13-29.1,22.6-48.2c36.1-72.2,46.6-91.2,55.2-96
			c8.5-4.8,215.5-6.1,215.5-6.1s207,1.4,215.5,6.1c8.5,4.8,19,23.8,55.2,96c9.6,19.1,16.8,34.9,22.6,48.2c1.7,3.8,3.2,7.4,4.6,10.7
			c1.4,3.4,2.8,6.6,4.1,9.7c9.9,23.6,15.6,37.7,27.3,51.8C804.7,311.9,812.2,324.1,811.8,345.8z"/>
		<g>
			<path class="st1" d="M809.8,506.2v76.9c0,15.6-12.7,28.3-28.3,28.3h-40.8c-15.6,0-28.3-12.7-28.3-28.3V551
				c25.7-1.4,46-3,55.9-4.6c17-5.8,38.8-32.7,38.8-32.7c0.1-4.2,0.3-10.5,0.5-18.4C809,498.6,809.8,502.3,809.8,506.2L809.8,506.2z"
				/>
			<path class="st1" d="M101.1,506.2v76.9c0,15.6,12.7,28.3,28.3,28.3h40.8c15.6,0,28.3-12.7,28.3-28.3V551c-25.7-1.4-46-3-55.9-4.6
				c-17-5.8-38.8-32.7-38.8-32.7c-0.1-4.2-0.3-10.5-0.5-18.4C101.8,498.6,101.1,502.3,101.1,506.2L101.1,506.2z"/>
			<path class="st2" d="M294.4,133.2v40.1c30-2.4,59.8-3.8,88.6-4.7v-35.4c0-13-10.5-23.5-23.5-23.5h-41.6
				C304.9,109.7,294.4,120.2,294.4,133.2z"/>
			<g>
				<path class="st3" d="M714.9,182.8c-26.5-3.2-55.8-5.8-82.9-8.2c-1.9-0.2-3.9-0.4-5.8-0.5c10.9-6.6,3.9-24.6-0.3-37.5
					c-13-31.1-21.2-29.9-53.8-33.2c-21.9-2.2-116.7-4.3-116.7-4.3s-94.8,2.1-116.7,4.3c-32.6,3.3-40.7,2-53.8,33.2
					c-4.2,12.9-11.2,30.9-0.3,37.5c-1.9,0.2-3.9,0.3-5.8,0.5c-27.1,2.4-56.4,5-82.9,8.2c6.4-14.3,13.8-29.2,21.5-44.6
					c9.3-18.6,18.9-35.6,28.3-51.1c1.3-2.2,3.6-3.6,6.2-3.8c31.6-2.2,64.5-3.9,98.7-4.7c36.3-0.9,71.2-1.8,104.7-1
					c33.4-0.8,68.4,0.1,104.7,1c34.2,0.8,67.2,2.5,98.8,4.7c2.6,0.2,4.9,1.6,6.2,3.8c9.4,15.5,19,32.5,28.3,51.1
					C701.1,153.6,708.5,168.5,714.9,182.8L714.9,182.8z"/>
				<path class="st2" d="M616.4,133.2v40.1c-30-2.4-59.8-3.8-88.6-4.7v-35.4c0-13,10.5-23.5,23.5-23.5h41.6
					C605.9,109.7,616.4,120.2,616.4,133.2z"/>
				<path class="st4" d="M492.6,167.8v32.8h-74.3v-32.8c12.6-0.2,25.1-0.3,37.2-0.3C467.5,167.5,479.9,167.6,492.6,167.8
					L492.6,167.8z"/>
				<path class="st2" d="M492.6,166.5v34.1h-74.3v-34.1c0-3,2.5-5.5,5.5-5.5h63.4C490.1,161,492.6,163.4,492.6,166.5z"/>
				<path class="st5" d="M728.1,197.2c-0.5-4.1-2.2-7.8-2.6-9.2c-0.3-1-16.9-37.2-24.8-52.9c-10.5-20.6-21.2-39.4-31.8-56.2
					c-1.3-2.2-3.7-3.5-6.2-3.7c-32-2.2-65.2-3.8-99.7-4.7c-37.2-1-73.1-2-107.6-1.3c-34.4-0.7-70.3,0.3-107.6,1.3
					c-34.5,0.9-67.7,2.5-99.7,4.7c-2.5,0.2-4.8,1.6-6.2,3.7c-10.6,16.9-21.3,35.6-31.8,56.2c-7.9,15.7-24.5,51.8-24.8,52.8
					c-0.2,0.4-0.4,1.1-0.7,2c-0.1,0.3-0.2,0.7-0.4,1c-0.3,0.8-0.5,1.6-0.8,2.6c-0.1,0.5-0.2,0.9-0.3,1.4c-0.1,0.4-0.2,0.7-0.2,1.1
					c-0.1,0.3-0.1,0.6-0.2,0.9c0,0.1,0,0.1,0,0.2c-0.2,1.9-0.3,3.8,0.2,5.7c1.3,5.6,5,8.3,15.2,9.1c11.8,0.9,46.2,2,89.7,2.8
					c57.5,1.1,113.4,2.7,167.6,2.4c54.2,0.3,110.1-1.3,167.6-2.4c43.5-0.8,77.9-1.9,89.8-2.8c7.4-0.6,11.4-2.2,13.5-5.2
					c0.4-0.6,0.7-1.2,1-1.8c0.3-0.6,0.5-1.4,0.7-2.1C728.4,201,728.4,199.1,728.1,197.2L728.1,197.2z M720.9,197.5
					c0,0.3,0,0.7-0.1,1c0,0,0,0.1,0,0.1c0,0.1,0,0.3-0.1,0.4c-0.1,0.2-0.1,0.4-0.2,0.6c-0.2,0.7-0.6,1.3-1.1,1.9
					c-0.1,0.2-0.3,0.3-0.4,0.5c-0.6,0.6-1.4,1.1-2.3,1.6c-0.3,0.2-0.7,0.3-1.1,0.4c-0.2,0.1-0.5,0.2-0.8,0.2c-0.1,0-0.1,0-0.2,0.1
					c-0.3,0.1-0.6,0.1-0.9,0.2c-0.3,0.1-0.7,0.1-1.1,0.1c0,0-30.8,0.9-89.7,2.1c-58.6,1.1-114.4,2.4-167.5,1
					c-53,1.4-108.9,0.1-167.5-1c-58.9-1.1-89.7-2.1-89.7-2.1c-6.2-0.6-8.4-4.2-8.3-7.3c0-0.4,0-0.7,0.1-1.1c1.1-4.7,3.8-9,5.9-13.6
					c6.4-14.3,13.8-29.2,21.5-44.6c9.3-18.6,18.9-35.6,28.3-51.1c1.3-2.2,3.6-3.6,6.2-3.8c31.6-2.2,64.5-3.9,98.7-4.7
					c36.3-0.9,71.2-1.8,104.7-1c33.4-0.8,68.4,0.1,104.7,1c34.2,0.8,67.2,2.5,98.8,4.7c2.6,0.2,4.9,1.6,6.2,3.8
					c9.4,15.5,19,32.5,28.3,51.1c7.7,15.4,15.1,30.3,21.5,44.6c2.1,4.6,4.8,8.9,5.9,13.6c0.1,0.2,0.1,0.4,0.1,0.6
					C720.9,197.1,720.9,197.3,720.9,197.5L720.9,197.5L720.9,197.5z"/>
				<path class="st6" d="M720.9,197.4L720.9,197.4c0,0.4,0,0.7-0.1,1.1c0,0,0,0.1,0,0.1c0,0.1-0.1,0.3-0.1,0.4
					c-0.1,0.2-0.1,0.4-0.2,0.6c-0.2,0.7-0.6,1.3-1.1,1.9c-0.1,0.2-0.3,0.3-0.4,0.5c-0.6,0.6-1.4,1.1-2.3,1.6
					c-0.3,0.2-0.7,0.3-1.1,0.4c-0.3,0.1-0.5,0.2-0.8,0.2c-0.1,0-0.1,0-0.2,0.1c-0.3,0.1-0.6,0.1-0.9,0.2c-0.3,0.1-0.7,0.1-1.1,0.1
					c0,0-30.8,0.9-89.7,2.1c-58.6,1.1-114.4,2.4-167.5,1c-53,1.4-108.9,0.1-167.5-1c-58.9-1.1-89.7-2.1-89.7-2.1
					c-6.2-0.6-8.4-4.2-8.3-7.3c0-0.4,0-0.7,0.1-1.1c1.1-4.7,3.8-9,5.9-13.6c26.5-3.2,55.8-5.8,82.9-8.2c1.9-0.2,3.9-0.4,5.8-0.5
					c3.3-0.3,6.5-0.5,9.8-0.8c30-2.4,59.8-3.8,88.6-4.7c11.9-0.4,23.7-0.6,35.2-0.8v32.8h74.3v-32.8c11.6,0.2,23.3,0.4,35.2,0.8
					c28.8,0.9,58.6,2.3,88.6,4.7c3.2,0.3,6.5,0.5,9.8,0.8c1.9,0.2,3.9,0.3,5.8,0.5c27.1,2.4,56.4,5,82.9,8.2
					c2.1,4.6,4.8,8.9,5.9,13.6c0.1,0.2,0.1,0.4,0.1,0.6C720.9,197.1,720.9,197.3,720.9,197.4L720.9,197.4z"/>
			</g>
			<g>
				<path class="st7" d="M831.1,207.5c0,0.7-0.1,1.4-0.2,2.1c-0.9,6.6-4.8,12.8-10.8,15.9c-7.9,3.3-18.9,6.3-32.1,8.2
					c-12.3,1.8-22.2,2.5-30.7,2.4c-1.3-3.1-2.6-6.3-4.1-9.7c-1.4-3.4-3-7-4.6-10.7l12.1-1.6v-22.8c0-0.7-0.1-7.2,5.3-11.4
					c5.8-4.6,12.6-3,13.1-2.8c6.3,0.9,13.4,2.9,21.1,5c8.4,2.3,15.7,5.1,22,7.8C823.9,190.6,831.4,196.6,831.1,207.5L831.1,207.5z"
					/>
				<path class="st8" d="M830.9,209.6c-0.9,6.6-4.8,12.8-10.8,15.9c-7.9,3.3-18.9,6.3-32.1,8.2c-12.3,1.8-22.2,2.5-30.7,2.4
					c-1.3-3.1-2.6-6.3-4.1-9.7C766.2,225.7,803.8,222.6,830.9,209.6L830.9,209.6z"/>
			</g>
			<g>
				<path class="st7" d="M79.8,207.5c0,0.7,0.1,1.4,0.2,2.1c0.9,6.6,4.8,12.8,10.8,15.9c7.9,3.3,18.9,6.3,32,8.2
					c12.3,1.8,22.2,2.5,30.7,2.4c1.3-3.1,2.6-6.3,4.1-9.7c1.4-3.4,3-7,4.6-10.7l-12.1-1.6v-22.8c0-0.7,0.1-7.2-5.3-11.4
					c-5.8-4.6-12.6-3-13.1-2.8c-6.3,0.9-13.4,2.9-21.1,5c-8.4,2.3-15.7,5.1-22,7.8C87,190.6,79.4,196.6,79.8,207.5L79.8,207.5z"/>
				<path class="st8" d="M80,209.6c0.9,6.6,4.8,12.8,10.8,15.9c7.9,3.3,18.9,6.3,32,8.2c12.3,1.8,22.2,2.5,30.7,2.4
					c1.3-3.1,2.6-6.3,4.1-9.7C144.6,225.7,107.1,222.6,80,209.6z"/>
			</g>
			<path class="st5" d="M742.4,288.3c-0.7,0.1-1.4,0.2-2.1,0.4c2.1-10.8,9.7-58-13.9-81.9c0.4-0.6,0.7-1.2,1-1.8
				C751.6,228.9,744.7,275.9,742.4,288.3z"/>
			<g>
				<g>
					<path class="st9" d="M777.8,342.9c-1.2,5.8-4.3,12.9-14.5,21.1c-2.6,2.1-5.2,3.9-7.8,5.5c-11,6.6-21.5,9-29.1,11.2
						c-10.3,2.9-23.1,4.6-37.1,6.3c-14.7,1.7-27.9,1.8-39.1,1.3c-1.4-0.1-2.7-0.7-3.6-1.7c-4.3-4.5-7.9-7.3-11.4-11.7
						c-2.5-3.2-3.3-7.4-2.3-11.4l5.3-19.6c0.9-2.8,3.9-5.2,6.2-7c11.2-8.6,25.2-18,42.2-26.5c14.7-7.4,26.5-13.7,38.5-17.4
						c2.2-0.7,4.8-1.6,7.5-2.4c8.6-2.6,18.9-4.7,26.9-0.1c3.9,2.2,8.2,5.9,10,8.7c2.8,3.5,6.4,9.9,8.7,20.6
						C780.5,330.1,778.9,338.6,777.8,342.9L777.8,342.9z"/>
					<path class="st10" d="M777.8,342.9c-1.2,5.8-4.3,12.9-14.5,21.1c-2.6,2.1-5.2,3.9-7.8,5.5c8.4-50-10.8-70.9-22.8-78.9
						c2.4-0.7,5-1.4,7.6-1.9c0.7-0.1,1.4-0.3,2.1-0.4c6-0.9,12.1-0.7,17.2,2.2c3.9,2.2,8.2,5.9,10,8.7c2.8,3.5,6.4,9.9,8.7,20.6
						C780.5,330.1,778.9,338.6,777.8,342.9z"/>
					
						<radialGradient id="SVGID_1_" cx="732.6703" cy="341.3749" r="52.5442" gradientTransform="matrix(1 0 0 -1 0 678.6299)" gradientUnits="userSpaceOnUse">
						<stop  offset="5.000000e-02" style="stop-color:#DEDEE0"/>
						<stop  offset="0.25" style="stop-color:#D9D9DB"/>
						<stop  offset="0.47" style="stop-color:#CDCDCE"/>
						<stop  offset="0.7" style="stop-color:#B8B8B8"/>
						<stop  offset="0.94" style="stop-color:#9B9B99"/>
						<stop  offset="1" style="stop-color:#939391"/>
					</radialGradient>
					<path class="st11" d="M764.9,337.3c0,8.8-3.6,16.8-9.3,22.7c-5.9,5.9-14,9.6-23,9.6c-0.9,0-1.9,0-2.8-0.1
						c-6.6-0.6-12.6-3.1-17.4-7c-7.3-5.9-12.1-15-12.1-25.1c0-7.4,2.5-14.2,6.7-19.6c5.4-7,13.5-11.7,22.8-12.5
						c0.9-0.1,1.9-0.1,2.8-0.1c9.2,0,17.5,3.9,23.4,10C761.6,320.8,764.9,328.6,764.9,337.3L764.9,337.3z"/>
					<path class="st12" d="M729.9,369.4c-0.9,0.1-1.9,0.1-2.8,0.1c-17.8,0-32.3-14.5-32.3-32.3s14.4-32.3,32.3-32.3
						c0.9,0,1.9,0,2.8,0.1c-16.5,1.4-29.5,15.3-29.5,32.2S713.4,368,729.9,369.4z"/>
					
						<radialGradient id="SVGID_00000000190645134590002160000004498115938564685230_" cx="661.7203" cy="318.8749" r="30.5534" gradientTransform="matrix(1 0 0 -1 0 678.6299)" gradientUnits="userSpaceOnUse">
						<stop  offset="5.000000e-02" style="stop-color:#DEDEE0"/>
						<stop  offset="0.25" style="stop-color:#D9D9DB"/>
						<stop  offset="0.47" style="stop-color:#CDCDCE"/>
						<stop  offset="0.7" style="stop-color:#B8B8B8"/>
						<stop  offset="0.94" style="stop-color:#9B9B99"/>
						<stop  offset="1" style="stop-color:#939391"/>
					</radialGradient>
					<path style="fill:url(#SVGID_00000000190645134590002160000004498115938564685230_);" d="M684.2,359.8c0,4.8-1.5,9.2-4,12.9
						c-4.1,5.8-10.8,9.6-18.5,9.6c-5.5,0-10.5-2-14.4-5.2c-5-4.1-8.1-10.3-8.1-17.3c0-5.1,1.7-9.8,4.5-13.5c4.1-5.5,10.6-9,18-9
						c6.8,0,12.9,3,17.1,7.8C682.2,349,684.2,354.1,684.2,359.8L684.2,359.8z"/>
					<path class="st14" d="M694.8,332.9c0,2.6-0.9,5-2.3,7c-2.1,2.9-5.6,4.8-9.5,4.8c-3,0-5.7-1.1-7.7-2.9c-2.5-2.2-4-5.3-4-8.9
						c0-1.2,0.2-2.3,0.5-3.4c1.5-4.9,6-8.4,11.3-8.4c4.1,0,7.7,2.1,9.8,5.3C694.1,328.2,694.8,330.5,694.8,332.9L694.8,332.9z"/>
					
						<radialGradient id="SVGID_00000074407265678331724320000010040151318072957585_" cx="731.5555" cy="341.3749" r="42.9874" gradientTransform="matrix(1 0 0 -1 0 678.6299)" gradientUnits="userSpaceOnUse">
						<stop  offset="3.000000e-02" style="stop-color:#85848A"/>
						<stop  offset="0.19" style="stop-color:#807F84"/>
						<stop  offset="0.39" style="stop-color:#727176"/>
						<stop  offset="0.61" style="stop-color:#5B5A5D"/>
						<stop  offset="0.83" style="stop-color:#3B3B3B"/>
						<stop  offset="1" style="stop-color:#20201E"/>
					</radialGradient>
					<path style="fill:url(#SVGID_00000074407265678331724320000010040151318072957585_);" d="M744.9,335.3l10.7,24.6
						c-5.9,5.9-14,9.6-23,9.6c-0.9,0-1.9,0-2.8-0.1c-6.6-0.6-12.6-3.1-17.4-7l12.6-22.2l-18-22.6c5.4-7,13.5-11.7,22.8-12.5
						c0.9-0.1,1.9-0.1,2.8-0.1c9.2,0,17.5,3.9,23.4,10L744.9,335.3L744.9,335.3z"/>
					
						<radialGradient id="SVGID_00000108288051718424861020000002733019005743984293_" cx="661.9655" cy="318.8749" r="29.037" gradientTransform="matrix(1 0 0 -1 0 678.6299)" gradientUnits="userSpaceOnUse">
						<stop  offset="3.000000e-02" style="stop-color:#85848A"/>
						<stop  offset="0.19" style="stop-color:#807F84"/>
						<stop  offset="0.39" style="stop-color:#727176"/>
						<stop  offset="0.61" style="stop-color:#5B5A5D"/>
						<stop  offset="0.83" style="stop-color:#3B3B3B"/>
						<stop  offset="1" style="stop-color:#20201E"/>
					</radialGradient>
					<path style="fill:url(#SVGID_00000108288051718424861020000002733019005743984293_);" d="M680.2,372.6
						c-4.1,5.8-10.8,9.6-18.5,9.6c-5.5,0-10.5-2-14.4-5.2l9.7-15.8l-13.3-15.1c4.1-5.5,10.6-9,18-9c6.8,0,12.9,3,17.1,7.8l-8.4,11.6
						L680.2,372.6L680.2,372.6z"/>
					<path class="st17" d="M694.8,332.9c0,2.6-0.9,5-2.3,7l-8.8-4.6l-8.4,6.5c-2.5-2.2-4-5.3-4-8.9c0-1.2,0.2-2.3,0.5-3.4l11.3,3.4
						l9.8-6.5C694.1,328.2,694.8,330.5,694.8,332.9L694.8,332.9z"/>
				</g>
				<g class="st18">
					
						<image style="overflow:visible;enable-background:new    ;" width="439" height="521" xlink:href="749C548.png"  transform="matrix(0.2405 0 0 0.2405 679.7492 273.82)">
					</image>
				</g>
				<g class="st18">
					
						<image style="overflow:visible;enable-background:new    ;" width="390" height="444" xlink:href="749C549.png"  transform="matrix(0.2416 0 0 0.2416 614.7342 306.46)">
					</image>
				</g>
				<path class="st19" d="M752.6,347c-59.9,30.3-95.3,30.5-117.2,33.2c-1.3-1.3-2.5-2.6-3.7-4.1c-1.5-1.9-2.4-4.2-2.7-6.6
					C629,369.5,678.9,371.9,752.6,347L752.6,347z"/>
			</g>
			<path class="st5" d="M168.5,288.3c0.7,0.1,1.4,0.2,2.1,0.4c-2.1-10.8-9.7-58,13.9-81.9c-0.4-0.6-0.7-1.2-1-1.8
				C159.2,228.9,166.1,275.9,168.5,288.3z"/>
			<g>
				<path class="st1" d="M645.9,389.4H265c1-0.3,1.8-0.8,2.6-1.5c2.9-3,5.5-5.2,7.9-7.7h360c2.4,2.5,5,4.7,7.9,7.7
					C644,388.6,644.9,389.1,645.9,389.4L645.9,389.4z"/>
				<path class="st20" d="M635.4,380.2h-360c1.3-1.3,2.5-2.6,3.7-4.1c1.5-1.9,2.4-4.2,2.7-6.6H629c0.3,2.4,1.2,4.6,2.7,6.6
					C632.9,377.6,634.1,378.9,635.4,380.2L635.4,380.2z"/>
				<polygon class="st20" points="633,351.3 630.1,362 280.7,362 277.8,351.3 				"/>
				<path class="st1" d="M637.8,340.4c-1.3,1.3-2.5,2.7-3,4.3l-1.8,6.6H277.8l-1.8-6.6c-0.5-1.5-1.7-3-3-4.3H637.8L637.8,340.4z"/>
				<path class="st1" d="M629.4,364.6c-0.4,1.6-0.6,3.3-0.4,4.9H281.8c0.2-1.6,0.1-3.3-0.4-4.9l-0.7-2.6h349.4L629.4,364.6z"/>
			</g>
			<g>
				<g>
					<path class="st9" d="M133.1,342.9c1.2,5.8,4.3,12.9,14.5,21.1c2.6,2.1,5.2,3.9,7.8,5.5c11,6.6,21.5,9,29.1,11.2
						c10.3,2.9,23.1,4.6,37.1,6.3c14.7,1.7,27.9,1.8,39.1,1.3c1.4-0.1,2.7-0.7,3.6-1.7c4.3-4.5,7.9-7.3,11.4-11.7
						c2.5-3.2,3.3-7.4,2.3-11.4l-5.3-19.6c-0.9-2.8-3.9-5.2-6.2-7c-11.2-8.6-25.2-18-42.2-26.5c-14.7-7.4-26.5-13.7-38.5-17.4
						c-2.2-0.7-4.8-1.6-7.5-2.4c-8.6-2.6-18.9-4.7-26.9-0.1c-3.9,2.2-8.2,5.9-10,8.7c-2.8,3.5-6.4,9.9-8.7,20.6
						C130.4,330.1,131.9,338.6,133.1,342.9L133.1,342.9z"/>
					<path class="st10" d="M133.1,342.9c1.2,5.8,4.3,12.9,14.5,21.1c2.6,2.1,5.2,3.9,7.8,5.5c-8.4-50,10.8-70.9,22.8-78.9
						c-2.4-0.7-5-1.4-7.6-1.9c-0.7-0.1-1.4-0.3-2.1-0.4c-6-0.9-12-0.7-17.2,2.2c-3.9,2.2-8.2,5.9-10,8.7c-2.8,3.5-6.4,9.9-8.7,20.6
						C130.4,330.1,131.9,338.6,133.1,342.9z"/>
					
						<radialGradient id="SVGID_00000158749770648167288010000013123018906069881985_" cx="1806.4707" cy="341.3749" r="52.544" gradientTransform="matrix(-1 0 0 -1 1984.621 678.6299)" gradientUnits="userSpaceOnUse">
						<stop  offset="5.000000e-02" style="stop-color:#DEDEE0"/>
						<stop  offset="0.25" style="stop-color:#D9D9DB"/>
						<stop  offset="0.47" style="stop-color:#CDCDCE"/>
						<stop  offset="0.7" style="stop-color:#B8B8B8"/>
						<stop  offset="0.94" style="stop-color:#9B9B99"/>
						<stop  offset="1" style="stop-color:#939391"/>
					</radialGradient>
					<path style="fill:url(#SVGID_00000158749770648167288010000013123018906069881985_);" d="M145.9,337.3c0,8.8,3.5,16.8,9.3,22.7
						c5.9,5.9,14,9.6,23,9.6c1,0,1.9,0,2.8-0.1c6.6-0.6,12.6-3.1,17.4-7c7.3-5.9,12-15,12-25.1c0-7.4-2.5-14.2-6.7-19.6
						c-5.4-7-13.5-11.7-22.8-12.5c-0.9-0.1-1.9-0.1-2.8-0.1c-9.2,0-17.5,3.9-23.4,10C149.3,320.8,145.9,328.6,145.9,337.3
						L145.9,337.3z"/>
					<path class="st12" d="M181,369.4c0.9,0.1,1.9,0.1,2.8,0.1c17.8,0,32.3-14.5,32.3-32.3S201.6,305,183.8,305c-1,0-1.9,0-2.8,0.1
						c16.5,1.4,29.5,15.3,29.5,32.2C210.4,354.1,197.5,368,181,369.4z"/>
					
						<radialGradient id="SVGID_00000127734303312104379360000015572823494202391197_" cx="1735.5206" cy="318.8749" r="30.5535" gradientTransform="matrix(-1 0 0 -1 1984.621 678.6299)" gradientUnits="userSpaceOnUse">
						<stop  offset="5.000000e-02" style="stop-color:#DEDEE0"/>
						<stop  offset="0.25" style="stop-color:#D9D9DB"/>
						<stop  offset="0.47" style="stop-color:#CDCDCE"/>
						<stop  offset="0.7" style="stop-color:#B8B8B8"/>
						<stop  offset="0.94" style="stop-color:#9B9B99"/>
						<stop  offset="1" style="stop-color:#939391"/>
					</radialGradient>
					<path style="fill:url(#SVGID_00000127734303312104379360000015572823494202391197_);" d="M226.6,359.8c0,4.8,1.5,9.2,4,12.9
						c4.1,5.8,10.8,9.6,18.5,9.6c5.5,0,10.5-2,14.4-5.2c5-4.1,8.1-10.3,8.1-17.3c0-5.1-1.7-9.8-4.5-13.5c-4.1-5.5-10.6-9-18-9
						c-6.8,0-12.9,3-17,7.8C228.7,349,226.6,354.1,226.6,359.8L226.6,359.8z"/>
					<path class="st14" d="M216,332.9c0,2.6,0.9,5,2.3,7c2.1,2.9,5.6,4.8,9.5,4.8c3,0,5.7-1.1,7.7-2.9c2.5-2.2,4-5.3,4-8.9
						c0-1.2-0.2-2.3-0.5-3.4c-1.5-4.9-6-8.4-11.3-8.4c-4.1,0-7.7,2.1-9.8,5.3C216.8,328.2,216,330.5,216,332.9L216,332.9z"/>
					
						<radialGradient id="SVGID_00000024689420630080840950000006836111157162165124_" cx="1805.3556" cy="341.3749" r="42.981" gradientTransform="matrix(-1 0 0 -1 1984.621 678.6299)" gradientUnits="userSpaceOnUse">
						<stop  offset="3.000000e-02" style="stop-color:#85848A"/>
						<stop  offset="0.19" style="stop-color:#807F84"/>
						<stop  offset="0.39" style="stop-color:#727176"/>
						<stop  offset="0.61" style="stop-color:#5B5A5D"/>
						<stop  offset="0.83" style="stop-color:#3B3B3B"/>
						<stop  offset="1" style="stop-color:#20201E"/>
					</radialGradient>
					<path style="fill:url(#SVGID_00000024689420630080840950000006836111157162165124_);" d="M165.9,335.3l-10.7,24.6
						c5.9,5.9,14,9.6,23,9.6c1,0,1.9,0,2.8-0.1c6.6-0.6,12.6-3.1,17.4-7l-12.6-22.2l18-22.6c-5.4-7-13.5-11.7-22.8-12.5
						c-0.9-0.1-1.9-0.1-2.8-0.1c-9.2,0-17.5,3.9-23.4,10L165.9,335.3z"/>
					
						<radialGradient id="SVGID_00000138566448119852518340000014275572058101510052_" cx="1735.7656" cy="318.8749" r="29.0307" gradientTransform="matrix(-1 0 0 -1 1984.621 678.6299)" gradientUnits="userSpaceOnUse">
						<stop  offset="3.000000e-02" style="stop-color:#85848A"/>
						<stop  offset="0.19" style="stop-color:#807F84"/>
						<stop  offset="0.39" style="stop-color:#727176"/>
						<stop  offset="0.61" style="stop-color:#5B5A5D"/>
						<stop  offset="0.83" style="stop-color:#3B3B3B"/>
						<stop  offset="1" style="stop-color:#20201E"/>
					</radialGradient>
					<path style="fill:url(#SVGID_00000138566448119852518340000014275572058101510052_);" d="M230.6,372.6
						c4.1,5.8,10.8,9.6,18.5,9.6c5.5,0,10.5-2,14.4-5.2l-9.7-15.8l13.3-15.1c-4.1-5.5-10.6-9-18-9c-6.8,0-12.9,3-17,7.8l8.4,11.6
						L230.6,372.6L230.6,372.6z"/>
					<path class="st17" d="M216,332.9c0,2.6,0.9,5,2.3,7l8.8-4.6l8.4,6.5c2.5-2.2,4-5.3,4-8.9c0-1.2-0.2-2.3-0.5-3.4l-11.3,3.4
						l-9.8-6.5C216.8,328.2,216,330.5,216,332.9L216,332.9z"/>
				</g>
				<g class="st18">
					
						<image style="overflow:visible;enable-background:new    ;" width="441" height="521" xlink:href="749C54F.png"  transform="matrix(0.2405 0 0 0.2405 125.1088 273.82)">
					</image>
				</g>
				<g class="st18">
					
						<image style="overflow:visible;enable-background:new    ;" width="391" height="444" xlink:href="749C54A.png"  transform="matrix(0.2412 0 0 0.2412 201.8904 306.5475)">
					</image>
				</g>
				<path class="st19" d="M158.2,347c59.9,30.3,95.3,30.5,117.2,33.2c1.3-1.3,2.5-2.6,3.7-4.1c1.5-1.9,2.4-4.2,2.7-6.6
					C281.8,369.5,231.9,371.9,158.2,347L158.2,347z"/>
			</g>
			<g>
				<g>
					<g>
						<path class="st25" d="M649,440.4c-0.8,4.6-1.9,10-3.2,15.8c-0.1,0.4-0.2,0.8-0.3,1.2c-86.6,2.6-190.1,3.4-190.1,3.4
							s-103.5-0.8-190.1-3.4c-0.1-0.4-0.2-0.8-0.3-1.2c-1.3-5.8-2.4-11.2-3.2-15.8c15.8-1.4,31.9-2.7,48.3-3.9
							c50.4-3.5,98.9-5.2,145.3-5.5c46.4,0.3,94.9,2,145.3,5.5C617.1,437.7,633.2,439,649,440.4L649,440.4z"/>
						<path class="st25" d="M265.3,457.4L265.3,457.4c-0.1-0.4-0.2-0.8-0.3-1.2C265.1,456.6,265.2,457,265.3,457.4z"/>
						<path class="st26" d="M759.6,449.8c-7.8,2.9-42.7,5.1-86.3,6.7c-2.7,0.1-5.3,0.2-8.1,0.3s-5.5,0.2-8.2,0.3
							c-3.8,0.1-7.6,0.2-11.4,0.4h0c-0.7,2.5-1.4,5-2.3,7.4c-0.6,1.7-1.2,3.5-1.9,5.1c-0.4,1-0.8,2.1-1.3,3.1
							c-1.3,3-2.8,5.8-4.3,8.6c-0.6,1-1.2,2.1-1.8,3.1c-1.4,2.4-2.8,4.6-4.4,6.8c-0.7,1-1.5,2.1-2.2,3.1c-1.8,2.4-3.7,4.7-5.6,6.8
							c-1,1.1-1.9,2.1-2.9,3.1c-2.6,2.6-5.3,4.9-8,6.8c-1.6,1.2-3.2,2.2-4.8,3.1c-2,1.1-4,2-6,2.5c-25,7.4-144.7,5.9-144.7,5.9
							s-119.6,1.5-144.7-5.9c-2-0.6-3.9-1.5-6-2.5c-1.6-0.9-3.2-1.9-4.8-3.1c-2.7-1.9-5.3-4.2-8-6.8c-1-1-2-2-2.9-3.1
							c-1.9-2.1-3.8-4.4-5.6-6.8c-0.8-1-1.5-2-2.2-3.1c-1.5-2.2-3-4.5-4.4-6.8c-0.6-1-1.2-2-1.8-3.1c-1.5-2.8-3-5.7-4.3-8.6
							c-0.4-1-0.9-2-1.3-3.1c-0.7-1.7-1.3-3.4-1.9-5.1c-0.9-2.5-1.6-4.9-2.3-7.4h0c-3.8-0.1-7.7-0.2-11.4-0.4
							c-2.8-0.1-5.5-0.2-8.2-0.3s-5.4-0.2-8.1-0.3c-43.6-1.6-78.5-3.8-86.3-6.7c-7.4,29.7,6.6,52,42.1,61.5
							c28.5,7.6,56.8,13.9,102.1,16.9c11,0.7,23,1.2,36.3,1.6l123.7,2l123.7-2c13.3-0.3,25.3-0.8,36.3-1.6
							c45.3-3,73.5-9.3,102.1-16.9C753,501.8,767.1,479.4,759.6,449.8L759.6,449.8z M174.7,495.7c-21.7-9.2-18.1-37.8-18.1-37.8
							l81.6,4.6c0.3,2,0.7,4.5,1.3,7.3c0.2,1,0.4,2,0.7,3.1c0.7,2.7,1.5,5.6,2.5,8.7c0.3,1,0.7,2.1,1.1,3.1
							c5,13.4,13.9,27.9,29.8,34.3C229.1,514.4,203.8,506.7,174.7,495.7L174.7,495.7z M736.2,495.7c-29.1,11-54.4,18.6-98.8,23.2
							c15.9-6.4,24.8-20.9,29.8-34.3c0.4-1,0.8-2.1,1.1-3.1c1-3,1.8-5.9,2.5-8.7c0.2-1.1,0.5-2.1,0.7-3.1c0.6-2.8,1-5.2,1.3-7.3
							l81.6-4.6C754.3,457.9,757.9,486.5,736.2,495.7L736.2,495.7z"/>
						<path class="st1" d="M645.5,457.4c-0.7,2.5-1.4,5-2.3,7.4c-0.6,1.7-1.2,3.5-1.9,5.1H269.5c-0.7-1.7-1.3-3.4-1.9-5.1
							c-0.9-2.5-1.6-4.9-2.3-7.4c86.6,2.6,190.1,3.4,190.1,3.4S559,460,645.5,457.4L645.5,457.4z"/>
						<path class="st1" d="M640,473c-1.3,3-2.8,5.8-4.3,8.6H275.1c-1.5-2.8-3-5.7-4.3-8.6H640L640,473z"/>
						<path class="st1" d="M634,484.7c-1.4,2.4-2.8,4.6-4.4,6.8H281.2c-1.5-2.2-3-4.5-4.4-6.8H634z"/>
						<path class="st1" d="M627.4,494.6c-1.8,2.4-3.7,4.7-5.6,6.8H289.1c-1.9-2.1-3.8-4.4-5.6-6.8H627.4z"/>
						<path class="st1" d="M618.9,504.5c-2.6,2.6-5.3,4.9-8,6.8h-311c-2.7-1.9-5.3-4.2-8-6.8H618.9L618.9,504.5z"/>
						<path class="st1" d="M606,514.4c-2,1.1-4,2-6,2.5c-25,7.4-144.7,5.9-144.7,5.9s-119.6,1.5-144.7-5.9c-2-0.6-3.9-1.5-6-2.5H606
							z"/>
						<path class="st27" d="M273.5,518.9c-44.4-4.6-69.7-12.2-98.8-23.2c-21.7-9.2-18.1-37.8-18.1-37.8l81.6,4.6
							c0.3,2,0.7,4.5,1.3,7.3c0.2,1,0.4,2,0.7,3.1c0.7,2.7,1.5,5.6,2.5,8.7c0.3,1,0.7,2.1,1.1,3.1
							C248.6,498,257.5,512.5,273.5,518.9z"/>
						<path class="st28" d="M273.5,518.9c-44.4-4.6-69.7-12.2-98.8-23.2c-21.7-9.2-18.1-37.8-18.1-37.8l81.6,4.6
							c0.3,2,0.7,4.5,1.3,7.3c0.2,1,0.4,2,0.7,3.1c0.7,2.7,1.5,5.6,2.5,8.7c0.3,1,0.7,2.1,1.1,3.1
							C248.6,498,257.5,512.5,273.5,518.9z"/>
						<path class="st29" d="M335.6,556.1c-46.6-1.3-98.1-3-137-5.2c-25.7-1.4-46-3-55.9-4.6c-17-5.8-38.8-32.7-38.8-32.7
							c-0.1-4.2-0.3-10.5-0.5-18.4c-0.7-25.5-2-66.8-3-100c11.5,9.5,20.8,13,20.8,13s1.7-5.2,4.8-16.1
							c46,38.5,133.5,31.7,133.5,31.7s0.7,6.5,2.5,16.6c0.8,4.6,1.9,10,3.2,15.8c0.1,0.4,0.2,0.8,0.3,1.2c-3.8-0.1-7.7-0.2-11.4-0.4
							c-2.8-0.1-5.5-0.2-8.2-0.3c-2.7-0.1-5.4-0.2-8.1-0.3c-43.6-1.6-78.5-3.8-86.3-6.7c-7.4,29.7,6.6,52,42.1,61.5
							c28.5,7.6,56.8,13.9,102.1,16.9C302.7,539.6,321.4,549.7,335.6,556.1L335.6,556.1z"/>
						<path class="st28" d="M237.5,456.5c0,0,0.1,2.3,0.6,6"/>
					</g>
					<path class="st26" d="M641.3,470c-0.4,1-0.8,2.1-1.3,3.1H270.8c-0.4-1-0.9-2-1.3-3.1H641.3L641.3,470z"/>
					<path class="st26" d="M635.7,481.7c-0.6,1-1.2,2.1-1.8,3.1H276.8c-0.6-1-1.2-2-1.8-3.1H635.7z"/>
					<path class="st20" d="M240.1,472.9l-73.2-1.4v-3.1l72.5,1.4C239.6,470.8,239.9,471.8,240.1,472.9z"/>
					<path class="st20" d="M243.7,484.6l-70.8-1.4v-3.1l69.7,1.4C242.9,482.5,243.3,483.6,243.7,484.6L243.7,484.6z"/>
					<path class="st26" d="M629.6,491.5c-0.7,1-1.5,2.1-2.2,3.1H283.4c-0.8-1-1.5-2-2.2-3.1H629.6L629.6,491.5z"/>
					<path class="st26" d="M621.8,501.4c-1,1.1-1.9,2.1-2.9,3.1H292c-1-1-2-2-2.9-3.1H621.8L621.8,501.4z"/>
					<path class="st26" d="M610.9,511.3c-1.6,1.2-3.2,2.2-4.8,3.1H304.8c-1.6-0.9-3.2-1.9-4.8-3.1H610.9z"/>
				</g>
				<g>
					<g>
						<path class="st25" d="M645.8,456.2c-0.1,0.4-0.2,0.8-0.3,1.2h0C645.6,457,645.7,456.6,645.8,456.2z"/>
						<path class="st27" d="M736.2,495.7c-29.1,11-54.4,18.6-98.8,23.2c15.9-6.4,24.8-20.9,29.8-34.3c0.4-1,0.8-2.1,1.1-3.1
							c1-3,1.8-5.9,2.5-8.7c0.2-1.1,0.5-2.1,0.7-3.1c0.6-2.8,1-5.2,1.3-7.3l81.6-4.6C754.3,457.9,757.9,486.5,736.2,495.7
							L736.2,495.7z"/>
						<path class="st28" d="M736.2,495.7c-29.1,11-54.4,18.6-98.8,23.2c15.9-6.4,24.8-20.9,29.8-34.3c0.4-1,0.8-2.1,1.1-3.1
							c1-3,1.8-5.9,2.5-8.7c0.2-1.1,0.5-2.1,0.7-3.1c0.6-2.8,1-5.2,1.3-7.3l81.6-4.6C754.3,457.9,757.9,486.5,736.2,495.7
							L736.2,495.7z"/>
						<path class="st29" d="M810.5,395.2c-1,33.2-2.2,74.5-2.9,100c-0.2,7.9-0.4,14.3-0.5,18.4c0,0-21.8,26.9-38.8,32.7
							c-9.9,1.7-30.2,3.2-55.9,4.6c-39,2.1-90.4,3.8-137.1,5.2c14.2-6.4,32.8-16.6,40.2-28c45.3-3,73.5-9.3,102.1-16.9
							c35.5-9.5,49.5-31.8,42.1-61.5c-7.8,2.9-42.7,5.1-86.3,6.7c-2.7,0.1-5.3,0.2-8.1,0.3c-2.7,0.1-5.5,0.2-8.2,0.3
							c-3.8,0.1-7.6,0.2-11.4,0.4c0.1-0.4,0.2-0.8,0.3-1.2c1.3-5.8,2.4-11.2,3.2-15.8c1.8-10.1,2.5-16.6,2.5-16.6
							s87.5,6.8,133.4-31.7c3.1,10.9,4.8,16.1,4.8,16.1S799,404.7,810.5,395.2L810.5,395.2z"/>
						<path class="st28" d="M672.7,462.5c0.5-3.7,0.6-6,0.6-6"/>
					</g>
					<path class="st20" d="M743.9,468.4v3.1l-73.2,1.4c0.2-1.1,0.5-2.1,0.7-3.1L743.9,468.4z"/>
					<path class="st20" d="M737.9,480.1v3.1l-70.8,1.4c0.4-1,0.8-2.1,1.1-3.1L737.9,480.1L737.9,480.1z"/>
				</g>
			</g>
		</g>
	</g>
	<g id="Capa_6">
		<g>
			<path class="st30" d="M457.3,225.5c-27-0.8-49.3,16.1-49.3,37.1c0,6.3,2,12.2,5.5,17.3l0,0c6,10,34.9,40.9,40.9,47.2
				c0.5,0.6,1.6,0.6,2.1,0c5.9-6.3,34.8-37.2,40.8-47.2c0,0,0,0,0,0c3.7-5.5,5.8-11.8,5.5-18.5C502,242.1,482,226.2,457.3,225.5
				L457.3,225.5z M456,289.9c-0.3,0.1-0.8,0.1-1.1,0c-30.8-11.8-26.5-33.3-25.9-41.2c0-0.5,0.6-0.9,1.2-0.9
				c13.3-0.1,22.3-3.7,24.7-4.8c0.4-0.2,0.8-0.2,1.2,0c2.3,1.1,11.4,4.6,24.7,4.8c0.7,0,1.2,0.4,1.2,0.9
				C482.5,256.6,486.8,278.1,456,289.9L456,289.9z"/>
			<path class="st30" d="M455.4,249.8c-7.8,0-14.2,5-14.2,11.1c0,5.5,5.1,10,11.8,10.9v2.8h-5.3v3.7h5.3v4.4h4.8v-4.4h5.3v-3.7h-5.3
				v-2.8c6.7-0.9,11.8-5.4,11.8-10.9C469.6,254.8,463.3,249.8,455.4,249.8L455.4,249.8z M455.4,267.5c-4.7,0-8.4-3-8.4-6.6
				c0-3.7,3.8-6.6,8.4-6.6s8.5,3,8.5,6.6S460.1,267.5,455.4,267.5z"/>
		</g>
	</g>
</g>
</svg>
