<svg width="210" height="289" viewBox="0 0 210 289" fill="none" xmlns="http://www.w3.org/2000/svg">
<g opacity="0.5">
<path d="M105.002 9.69538C106.224 9.69538 107.485 9.71478 108.726 9.77295C158.492 11.6539 198.697 52.1418 200.268 101.918C200.773 118.09 197.185 134.107 189.892 148.339L188.108 150.143V151.927C174.842 178.279 124.397 248.124 105.022 274.631C85.6464 248.105 35.143 178.221 21.8965 151.888V151.675L20.7716 149.542C13.5374 135.929 9.71668 120.533 9.71668 105.001C9.69728 52.452 52.4429 9.69538 105.002 9.69538ZM105.002 0C47.0124 0 0 47.0032 0 104.982C0 122.724 4.40257 139.439 12.1798 154.079V154.118C25.5039 182.428 89.5059 269.939 102.636 287.798C103.218 288.593 104.11 289 105.002 289C105.894 289 106.767 288.593 107.368 287.798C120.498 269.939 184.442 182.506 197.786 154.157C197.786 154.137 197.805 154.137 197.805 154.118C206.087 138.528 210.547 120.611 209.946 101.608C208.239 46.8869 163.807 2.15238 109.094 0.0775631C107.717 0.0193908 106.36 0 105.002 0Z" fill="#F4F1F3"/>
<path d="M104.983 81.48C94.6455 81.48 86.267 89.8568 86.267 100.192C86.267 110.527 94.6455 118.924 104.983 118.924C115.32 118.924 123.718 110.547 123.718 100.192C123.718 89.8374 115.32 81.48 104.983 81.48Z" fill="#F4F1F3"/>
<path d="M163.613 65.5796C163.535 64.1447 162.333 63.02 160.897 63.0006C131.515 62.6128 111.519 52.4132 106.321 49.4465C105.487 48.9811 104.479 48.9811 103.645 49.4465C98.4468 52.4132 78.4704 62.6128 49.0683 63.0006C47.6137 63.0006 46.4306 64.1253 46.353 65.5796C45.0536 87.9953 35.589 148.805 103.742 182.234C104.498 182.603 105.429 182.603 106.185 182.234C174.357 148.805 164.873 87.9953 163.574 65.5796H163.613ZM110.258 131.14V139.168H121.934V149.736H110.258V162.107H99.7075V149.736H88.0319V139.168H99.7075V131.14C84.89 128.638 73.6024 115.724 73.6024 100.192C73.6024 82.8568 87.6441 68.8178 104.983 68.8178C122.322 68.8178 136.383 82.8568 136.383 100.192C136.383 115.724 125.076 128.638 110.258 131.14Z" fill="#F4F1F3"/>
</g>
</svg>
