<svg width="381" height="143" viewBox="0 0 381 143" fill="none" xmlns="http://www.w3.org/2000/svg">
<path d="M313 -5.43028C302.256 -5.43028 291.512 -5.43028 280.796 -5.43028C277.751 -5.43028 275.768 -7.38711 275.768 -10.1097C275.768 -12.9457 277.808 -14.7891 280.968 -14.8458C301.135 -15.2145 321.274 -14.8174 341.441 -14.7323C354.283 -14.6756 364.797 -9.82608 371.663 1.12088C378.386 11.841 378.443 23.1282 372.295 34.0468C366.234 44.8236 356.524 50.212 344.055 50.3538C329.088 50.5523 314.121 50.4673 299.153 50.524C297.171 50.524 295.189 50.2971 293.206 50.5807C287.087 51.4315 283.496 54.7213 282.462 60.7052C282.175 62.3501 282.06 64.0233 282.06 65.6682C282.06 77.9481 282.06 90.228 282.146 102.479C282.175 109.031 281.399 115.44 278.411 121.396C271.976 134.158 261.289 140.482 247.069 141.304C223.971 142.637 209.061 121.225 210.383 104.663C210.699 100.466 211.561 96.4104 213.141 92.5251C213.917 90.625 215.123 89.0652 217.393 88.8383C220.38 88.5264 222.478 90.8235 222.133 93.9148C221.874 96.4104 220.696 98.6792 220.237 101.147C217.249 117.142 229.746 132.172 246.178 132.257C260.83 132.343 272.723 120.63 272.781 106.024C272.838 91.8445 272.867 77.6645 272.924 63.4845C272.953 53.6719 278.239 45.9297 287.001 42.8668C289.414 42.016 291.914 41.6757 294.471 41.6757C310.587 41.6757 326.704 41.6473 342.82 41.5906C354.513 41.5622 364.481 33.7632 367.009 22.7312C370.256 8.72134 359.052 -5.31684 344.544 -5.43028C339.287 -5.45864 334.029 -5.45863 328.801 -5.48699C323.544 -5.48699 318.315 -5.48699 313.058 -5.48699L313 -5.43028Z" fill="#F4F1F3"/>
<path d="M66.6268 -5.37354C56.6007 -5.37354 46.6033 -5.48698 36.5771 -5.37353C24.3676 -5.20337 15.0884 3.6733 13.5083 15.6412C11.957 27.2121 21.8395 41.619 38.2433 41.619C54.0439 41.619 69.8731 41.619 85.6737 41.619C90.4713 41.619 95.0678 42.2712 99.1185 45.0505C104.778 48.9642 107.852 54.2959 107.881 61.1873C107.909 72.6164 107.823 84.0739 107.909 95.5029C107.938 100.608 107.622 105.769 108.513 110.817C110.725 123.494 121.929 132.257 135.632 132.144C147.727 132.059 158.787 122.445 160.769 110.392C161.459 106.195 161.114 102.082 159.85 98.027C159.39 96.5523 158.845 95.0775 158.73 93.5177C158.586 91.4474 159.534 89.916 161.43 89.1219C163.297 88.3562 165.107 88.7533 166.429 90.4549C168.67 93.2625 169.445 96.6373 169.962 100.069C172.864 119.212 160.999 136.313 141.981 140.567C122.503 144.906 102.307 131.208 99.4345 111.725C99.1472 109.711 99.0036 107.698 99.0036 105.684C99.0036 92.2699 99.0036 78.884 99.0036 65.4697C99.0036 63.5696 98.8599 61.6695 98.4577 59.7977C97.2799 54.381 94.0623 51.4032 88.5178 50.6942C87.4548 50.5524 86.3632 50.4673 85.2715 50.4673C73.3205 50.4106 61.3696 50.3255 49.4186 50.3538C44.3625 50.3538 39.2776 50.5807 34.2214 50.3255C19.5413 49.5314 6.41249 37.3366 4.57388 22.8447C2.04579 3.1061 16.2662 -13.7397 36.4047 -14.6473C43.8166 -14.9876 51.2572 -14.7891 58.6691 -14.8174C71.2808 -14.8458 83.8925 -14.8741 96.5042 -14.9025C99.4919 -14.9025 101.445 -13.6263 101.963 -11.4426C102.71 -8.26626 100.612 -5.60042 97.2224 -5.57206C91.6204 -5.5437 85.9897 -5.57206 80.3877 -5.57206C75.7912 -5.57206 71.2233 -5.57206 66.6268 -5.57206C66.6268 -5.5437 66.6268 -5.48698 66.6268 -5.45862L66.6268 -5.37354Z" fill="#F4F1F3"/>
<path d="M229.545 0.241744C233.71 0.241744 237.761 0.241744 241.783 0.241743C242.185 0.241743 242.645 0.355187 242.961 0.582067C248.477 4.0987 254.653 4.72263 261.031 4.77934C267.064 4.86442 273.097 4.77934 279.13 4.77934C289.271 4.72262 299.412 5.06294 309.553 4.77934C319.981 4.49574 330.41 5.03458 340.838 4.77934C343.797 4.69426 346.727 5.03458 349.485 6.3675C354.972 9.00498 357.874 14.5919 356.782 20.5758C355.633 26.7583 351.094 30.9556 344.86 31.4377C342.044 31.6362 339.2 31.7213 336.356 31.7213C321.676 31.7781 307.025 31.6646 292.345 31.8631C277.32 32.0617 264.938 43.0937 262.755 57.8125C262.352 60.4784 262.266 63.1442 262.237 65.8384C262.18 74.8852 262.151 83.9604 262.237 93.0073C262.266 98.0553 262.611 103.132 262.065 108.18C261.203 116.461 253.935 122.331 245.144 121.878C237.014 121.452 230.091 114.419 230.119 106.563C230.119 103.614 231.182 101.827 233.337 101.118C236.468 100.097 239.169 102.253 239.6 106.166C239.714 107.131 239.887 108.038 240.289 108.917C241.553 111.583 243.966 112.944 246.868 112.661C249.712 112.405 251.953 110.534 252.7 107.811C253.016 106.705 253.102 105.599 253.102 104.436C253.102 90.9653 253.159 77.4944 253.159 64.0234C253.159 54.7213 255.285 46.0431 260.945 38.4994C269.132 27.5808 280.509 22.7312 293.982 22.5611C308.95 22.3909 323.917 22.5611 338.884 22.6178C340.321 22.6178 341.786 22.6178 343.222 22.476C345.98 22.2491 347.532 20.746 347.589 18.3921C347.646 15.8681 346.21 14.3367 343.366 13.9963C342.159 13.8545 340.953 13.8829 339.746 13.8829C312.569 13.8829 285.421 13.9113 258.244 13.8829C247.27 13.8829 238.048 9.82743 230.608 1.88663C230.292 1.54631 229.976 1.17763 229.688 0.78059C229.631 0.695511 229.631 0.553703 229.545 0.156663L229.545 0.241744Z" fill="#F4F1F3"/>
<path d="M152.007 -0.467245C150.714 1.68811 149.134 3.13447 147.554 4.55247C140.315 10.9902 131.696 13.9396 122.044 13.9396C94.8954 13.9964 67.7185 13.9396 40.5703 13.9396C39.3637 13.9396 38.1572 14.0531 36.9793 14.1949C34.7672 14.4785 33.5319 15.8114 33.3308 17.9668C33.1585 20.0087 34.3076 21.5685 36.4335 22.2207C37.4964 22.5327 38.5881 22.5327 39.651 22.5327C54.6759 22.5327 69.7008 22.5327 84.7256 22.5327C91.7928 22.5327 98.745 23.2701 105.123 26.5315C119.458 33.82 127.157 45.5043 127.531 61.4143C127.875 76.1331 127.588 90.8519 127.703 105.571C127.732 110.307 131.323 113.313 135.718 112.661C138.792 112.179 141.004 109.541 141.493 105.741C141.694 104.039 142.039 102.423 143.762 101.515C146.894 99.8704 150.025 101.572 150.513 105.174C151.519 112.462 145.744 120.148 138.189 121.537C127.186 123.579 118.654 116.546 118.654 105.514C118.654 91.7594 118.711 78.0048 118.654 64.2219C118.596 54.1541 115.407 45.3625 107.306 38.8113C101.618 34.1887 95.0391 31.8348 87.6272 31.8348C71.3958 31.8348 55.1643 31.7781 38.9328 31.7781C37.3528 31.7781 35.8014 31.6079 34.2789 31.2392C27.7001 29.7078 23.5632 24.2627 23.8792 17.6264C24.1952 11.1036 29.194 5.80033 35.8015 5.03461C37.008 4.89281 38.2146 4.83609 39.4212 4.83609C65.9661 4.83608 92.5397 4.83608 119.085 4.80772C122.704 4.80772 126.324 4.92115 129.886 4.04199C132.903 3.27627 135.747 2.17023 138.275 0.355194C139.108 -0.240366 139.941 -0.467244 140.947 -0.438884C144.538 -0.410524 148.129 -0.438884 152.007 -0.438885L152.007 -0.467245Z" fill="#F4F1F3"/>
<path d="M380.943 87.1367C380.943 92.2699 379.65 96.5806 377.122 100.438C374.594 104.323 370.485 105.854 366.147 106.677C359.942 107.84 354.197 106.904 349.629 102.224C343.251 95.6731 345.233 83.9037 353.191 80.5005C357.012 78.8556 360.545 80.9826 360.229 84.7261C360.143 85.7754 359.626 86.6546 358.937 87.4203C358.161 88.2711 357.328 89.0368 356.61 89.916C354.311 92.6669 354.972 95.588 358.219 97.2329C362.93 99.6151 369.566 96.5522 371.117 91.2773C372.726 85.7471 370.658 79.2243 366.262 75.9912C361.637 72.6164 354.455 72.6164 349.227 75.9912C345.664 78.2884 343.596 81.6349 342.188 85.4635C337.821 97.3179 328.83 103.075 316.534 104.38C308.461 105.23 301.135 103.075 294.442 98.6225C293.034 97.6866 291.799 96.5239 290.879 95.1059C289.041 92.2982 289.357 88.6114 291.626 86.1441C292.517 85.1799 293.465 85.0097 294.471 85.8889C295.189 86.5128 295.792 87.2502 296.453 87.9592C303.577 95.7298 315.959 97.6866 325.152 92.5251C329.289 90.1996 331.903 86.683 333.455 82.3155C335.724 75.8211 339.689 70.6596 345.75 67.1996C359.799 59.1738 377.61 67.2564 380.569 82.9678C380.856 84.4992 380.914 86.0307 381 87.1084L380.943 87.1367Z" fill="#F4F1F3"/>
<path d="M67.1153 104.436C55.8251 104.153 46.6895 99.9838 40.714 90.1145C39.766 88.5264 39.1627 86.7681 38.5306 85.0381C35.8302 77.4944 29.8547 73.3254 22.0694 73.524C13.1062 73.7508 6.67105 82.9111 9.63006 91.2773C11.4974 96.5523 17.3005 99.3883 22.0981 97.3463C26.0339 95.6731 26.7808 92.0714 23.7931 89.0652C23.3334 88.6115 22.7876 88.2144 22.2705 87.8174C20.5468 86.371 20.1159 84.2724 21.1214 82.1737C22.0119 80.302 23.6207 79.5646 25.9764 80.0468C30.3144 80.9259 32.8999 83.7335 34.2214 87.7323C37.3815 97.2045 30.7166 106.62 20.5181 107.216C8.30856 107.953 -0.855764 98.5091 0.0635382 86.0591C0.523189 79.8766 2.41927 74.2046 7.21689 69.9506C16.2663 61.9247 31.4348 62.6054 40.5704 71.3119C43.7879 74.3748 46.1149 78.0048 47.4077 82.2872C49.5623 89.4339 56.2272 94.3969 64.4723 95.191C71.051 95.8149 77.0553 94.3969 82.2838 90.2563C83.318 89.4339 84.266 88.5264 84.898 87.3353C85.4151 86.3143 85.961 85.2083 87.3687 85.3501C88.92 85.4919 89.868 86.4561 90.4713 87.789C91.8215 90.7385 91.0746 94.5671 88.6614 96.8359C86.909 98.4807 84.8693 99.7853 82.7147 100.891C77.7447 103.444 73.2631 104.436 67.1727 104.493L67.1153 104.436Z" fill="#F4F1F3"/>
<path d="M145.141 55.2885C143.762 55.2885 142.383 55.2885 140.976 55.2885C137.873 55.2885 137.183 54.8347 136.465 51.8569C134.426 43.3489 130.605 35.7485 124.572 29.3391C123.308 27.9778 121.9 26.7584 120.55 25.4822C120.234 25.1986 119.86 24.9433 120.061 24.4328C120.262 23.9507 120.578 23.6104 121.153 23.6671C122.877 23.8373 124.486 23.2417 126.152 22.9865C130.088 22.3909 132.989 24.1776 135.115 27.2121C138.419 31.9199 141.292 36.8829 143.216 42.2996C144.538 45.9864 145.055 46.3835 148.933 46.2984C152.553 46.2133 156.173 46.2984 159.793 46.1566C164.791 45.9013 168.928 42.6683 169.819 38.5277C170.393 35.947 169.187 33.508 166.601 31.9199C164.763 30.7855 163.125 31.0407 160.827 32.8274C159.936 33.5364 159.074 34.3021 158.069 34.8409C156.489 35.7201 154.938 35.4932 153.501 34.4439C152.122 33.4229 151.548 32.0333 151.892 30.3601C152.582 26.9569 154.909 24.8866 157.896 23.4402C166.027 19.5265 178.408 24.5746 179.098 36.344C179.471 43.1788 177.202 48.5388 170.997 52.0838C167.52 54.069 166.659 56.1393 167.463 60.0246C168.583 65.3279 168.038 70.2058 164.274 74.4315C158.758 80.6423 148.502 81.011 142.958 75.1972C142.067 74.2897 141.32 73.2687 140.947 72.0492C140.43 70.2626 140.688 68.6177 142.182 67.3415C143.733 66.0086 145.572 65.7817 147.382 66.8026C148.215 67.2564 148.962 67.8803 149.766 68.4192C152.496 70.3193 154.191 70.5745 156.058 69.27C158.385 67.6251 159.448 64.8174 158.73 62.18C157.724 58.4364 154.478 55.6855 150.542 55.3736C148.732 55.2318 146.922 55.3736 145.112 55.3736C145.112 55.3736 145.112 55.3169 145.112 55.2885L145.141 55.2885Z" fill="#F4F1F3"/>
<path d="M227.505 46.2984C229.315 46.2984 231.125 46.2984 232.935 46.2984C235.52 46.2984 236.526 45.6177 237.33 43.1788C239.312 37.1665 242.472 31.7781 246.15 26.6733C248.247 23.7805 250.689 22.2491 254.481 23.2701C256.061 23.6955 257.842 23.6104 259.508 23.6387C260.772 23.6387 260.858 24.1776 260.313 25.0567C259.968 25.6239 259.566 26.1628 259.106 26.5882C251.723 33.111 247.184 41.307 244.684 50.6658C243.478 55.2034 243.334 55.2885 238.508 55.2885C235.807 55.2885 233.078 55.09 230.378 55.3452C226.097 55.7422 222.822 58.6633 222.075 62.8322C221.501 66.0369 223.483 69.1282 226.643 69.979C228.252 70.4044 229.602 69.979 230.837 68.9296C231.527 68.3341 232.159 67.7102 232.906 67.1997C235.089 65.6682 236.813 65.6966 238.479 67.1997C240.203 68.7595 240.605 70.9432 239.398 73.0418C237.158 77.0122 233.567 78.9974 229.056 79.3094C217.594 80.0468 209.377 68.646 213.744 58.1528C214.75 55.7422 214.491 54.8631 212.193 53.6436C209.952 52.4525 207.884 51.0629 206.074 49.2478C200.07 43.2355 198.777 29.0839 210.584 23.4969C216.646 20.6326 223.799 22.2207 227.562 27.1837C229.602 29.8779 229.545 32.2602 227.419 34.1887C225.925 35.5499 224.173 35.7768 222.449 34.7275C221.673 34.2737 220.984 33.6782 220.352 33.0543C218.772 31.4945 216.99 30.672 214.807 31.6363C212.538 32.6289 211.216 34.4155 210.986 36.8545C210.728 39.4636 211.992 41.4488 213.83 43.1221C216.244 45.3341 219.203 46.2417 222.449 46.27C224.144 46.27 225.81 46.27 227.505 46.27L227.505 46.2984Z" fill="#F4F1F3"/>
<path d="M186.481 88.413C186.481 84.0739 186.481 79.7065 186.481 75.3674C186.481 74.8853 186.74 74.2046 185.993 74.0061C185.303 73.8359 184.901 74.2897 184.528 74.8285C182.775 77.3809 180.85 79.8483 178.811 82.1738C175.909 85.4352 172.289 86.2293 168.152 85.0665C166.199 84.5277 165.883 83.3933 167.377 82.0036C170.623 79.0542 173.697 75.9629 176.311 72.4179C183.005 63.3711 186.251 53.2182 186.424 42.0728C186.452 39.6338 186.567 37.1948 186.653 34.7559C186.711 33.2244 187.544 32.4871 189.067 32.5154C189.296 32.5154 189.555 32.4587 189.785 32.4304C193.577 32.1751 194.353 32.9125 194.353 36.6844C194.353 45.1924 195.071 53.5586 198.403 61.5277C201.707 69.4685 206.907 75.9913 213.227 81.7484C213.859 82.3439 215.066 82.8828 214.836 83.7052C214.635 84.4709 213.342 84.556 212.509 84.8396C208.573 86.1442 205.183 85.4068 202.31 82.3439C200.213 80.1035 198.403 77.6645 196.507 75.2823C196.191 74.8853 195.99 74.1763 195.358 74.3181C194.726 74.4882 194.582 75.1689 194.41 75.7361C194.324 76.0764 194.324 76.4451 194.324 76.8137C194.353 85.0381 194.381 93.2625 194.439 101.459C194.439 102.905 193.835 103.727 192.457 103.954C191.738 104.068 191.02 104.181 190.302 104.181C186.941 104.181 186.481 103.642 186.481 100.353C186.481 96.3538 186.481 92.3834 186.481 88.3846L186.481 88.413Z" fill="#F4F1F3"/>
<path d="M296.539 112.576C299.757 113.115 302.945 113.738 306.163 114.192C318.258 115.894 329.72 114.362 340.206 107.754C342.303 106.422 343.107 106.62 344.659 108.435C344.802 108.605 344.975 108.804 345.147 108.974C346.095 109.853 347.417 110.449 347.761 111.838C348.106 113.256 346.785 114.079 346.354 115.213C345.923 116.319 346.038 117.425 346.354 118.531C347.589 122.7 348.824 126.869 350.06 131.01C350.232 131.634 350.404 132.286 350.491 132.91C350.749 134.81 350.175 135.491 348.279 135.434C344.429 135.32 341.872 133.364 340.263 129.989C339.258 127.862 338.942 125.536 338.166 123.352C337.458 121.348 336.069 120.573 334.001 121.027C327.939 122.388 327.479 123.154 329.203 129.081C330.151 132.343 331.128 135.576 332.047 138.837C332.65 140.964 331.875 141.957 329.663 141.786C325.985 141.503 323.256 139.858 321.82 136.398C320.613 133.534 319.895 130.528 319.004 127.55C318.028 124.232 317.511 123.806 314.092 123.835C311.909 123.835 309.754 123.835 307.571 123.835C305.703 123.835 305.129 124.572 305.646 126.415C306.192 128.372 306.824 130.272 307.427 132.201C308.174 134.583 308.95 136.965 309.725 139.319C310.501 141.673 308.95 143.346 306.421 142.779C303.06 142.013 300.331 140.34 299.211 136.937C297.86 132.881 296.654 128.769 295.447 124.657C294.988 123.069 294.442 121.594 292.89 120.743C292.689 120.63 292.46 120.46 292.373 120.261C291.483 118.049 292.546 116.064 293.321 114.107C293.867 112.746 295.103 112.434 296.482 112.519L296.539 112.576Z" fill="#F4F1F3"/>
<path d="M73.2918 123.636C71.2521 123.636 69.1837 123.636 67.144 123.636C63.9551 123.693 62.2314 124.969 61.3983 128.032C60.8237 130.159 60.5365 132.343 59.9045 134.441C58.7553 138.213 56.4571 140.964 52.3202 141.815C49.2463 142.439 48.1546 141.389 48.959 138.412C50.0507 134.526 51.2285 130.641 52.4064 126.784C53.4119 123.523 52.9522 122.643 49.6485 121.821C48.4132 121.509 47.2066 121.14 46 120.828C44.5061 120.431 43.5294 120.999 43.0697 122.445C42.5239 124.09 42.0642 125.735 41.5184 127.38C41.1737 128.457 40.8002 129.507 40.3692 130.556C38.9616 134.158 35.9451 135.377 32.3541 135.519C30.4006 135.604 29.5387 134.299 30.1133 132.456C31.5497 127.862 32.9574 123.267 34.4512 118.673C35.0258 116.915 34.9971 115.327 33.6468 113.852C32.6988 112.803 32.8137 111.668 33.8192 110.676C34.5087 109.995 35.2556 109.399 35.8876 108.69C37.8412 106.507 38.387 106.422 40.9438 107.981C46.0862 111.158 51.6307 113.143 57.6062 114.135C66.5981 115.61 75.4177 114.447 84.1511 112.491C85.9035 112.094 86.8515 112.292 87.1963 114.135C87.3112 114.759 87.5985 115.383 87.8858 115.979C88.9774 118.163 89.3509 120.006 86.909 121.821C85.214 123.097 84.9842 125.451 84.5246 127.493C83.7776 130.925 82.5136 134.214 81.3357 137.504C80.1579 140.851 77.2276 142.24 74.01 142.921C71.7405 143.403 70.419 141.616 71.1085 139.376C72.4587 135.008 73.8664 130.641 75.1017 126.217C75.7337 123.976 75.5614 123.92 73.2631 123.664L73.2918 123.636Z" fill="#F4F1F3"/>
<path d="M67.0865 86.1725C75.8199 86.1725 82.7434 79.4228 82.7721 70.8297C82.7721 62.3501 75.7911 55.487 67.1727 55.5437C58.7266 55.6004 51.7169 62.5486 51.6881 70.8297C51.6594 79.0825 58.7553 86.1441 67.0865 86.1725ZM67.2588 64.1651C71.0222 64.1651 74.1536 67.2847 74.0962 70.9999C74.0387 74.6016 70.8499 77.6361 67.2014 77.6078C63.5817 77.5794 60.3641 74.4031 60.4215 70.8581C60.479 67.2847 63.6678 64.1652 67.2588 64.1368L67.2588 64.1651Z" fill="#F4F1F3"/>
<path d="M313.431 86.1725C321.935 86.1725 328.944 79.3661 329.002 71.085C329.031 62.3784 322.251 55.5437 313.546 55.5437C304.87 55.5437 298.176 62.2366 298.205 70.9148C298.205 79.5362 304.841 86.1725 313.431 86.1725ZM313.431 64.0233C316.993 64.0233 320.355 67.228 320.383 70.7163C320.441 74.4031 317.252 77.6361 313.575 77.6361C309.869 77.6361 306.824 74.63 306.766 70.9432C306.709 67.3414 309.898 64.0517 313.431 64.0233Z" fill="#F4F1F3"/>
</svg>
